<?xml version="1.0" encoding="utf-8"?>
<!-- Generator: Adobe Illustrator 26.5.0, SVG Export Plug-In . SVG Version: 6.00 Build 0)  -->
<svg version="1.1" id="Layer_1" xmlns="http://www.w3.org/2000/svg" xmlns:xlink="http://www.w3.org/1999/xlink" x="0px" y="0px"
	 viewBox="0 0 24 24" style="enable-background:new 0 0 24 24;" xml:space="preserve">
<style type="text/css">
	.st0{fill:#1080FC;}
</style>
<path class="st0" d="M15.01,2H6.14C6.37,2.01,6.6,2.08,6.8,2.23L9.23,4.1h5.78c1.04,0,1.89,0.84,1.89,1.88v8.17
	c0,1.04-0.85,1.88-1.89,1.88h-1.68c-0.15,0-0.28,0.13-0.28,0.28v1.54c0,0.15,0.13,0.28,0.28,0.28h1.68c2.21,0,3.99-1.78,3.99-3.98
	V5.98C19,3.78,17.21,2,15.01,2z"/>
<path class="st0" d="M10.2,22.24l-4.32-3.31C5.32,18.5,5,17.85,5,17.16V3.12c0-0.93,1.06-1.45,1.8-0.89l4.32,3.31
	C11.67,5.97,12,6.62,12,7.31v14.04C12,22.28,10.93,22.8,10.2,22.24z"/>
</svg>
