<?xml version="1.0" encoding="UTF-8"?> <svg xmlns="http://www.w3.org/2000/svg" xmlns:xlink="http://www.w3.org/1999/xlink" version="1.1" id="Layer_1" x="0px" y="0px" viewBox="0 0 24 24" style="enable-background:new 0 0 24 24;" xml:space="preserve"> <style type="text/css"> .st0{clip-path:url(#SVGID_00000161595111051029225160000003005024228416586672_);} .st1{fill:#FFFFFF;} .st2{fill:#1080FC;} </style> <g> <defs> <rect id="SVGID_1_" width="24" height="24"></rect> </defs> <clipPath id="SVGID_00000103959352275014774180000009957054826944968091_"> <use xlink:href="#SVGID_1_" style="overflow:visible;"></use> </clipPath> <g style="clip-path:url(#SVGID_00000103959352275014774180000009957054826944968091_);"> <rect class="st1" width="24" height="24"></rect> <path class="st2" d="M8.9,12.8l1.1-0.8l1.1,0.8c0.4,0.3,0.9-0.1,0.8-0.6l-0.4-1.4l1.2-0.9C13,9.6,12.8,9,12.3,9h-1.4l-0.4-1.3 c-0.1-0.5-0.8-0.5-0.9,0L9.1,9H7.7C7.2,9,7,9.6,7.4,9.9l1.2,0.9l-0.4,1.4C8,12.7,8.5,13,8.9,12.8z M4,21.6c0,0.7,0.7,1.2,1.3,0.9 L10,21l4.7,1.6c0.6,0.2,1.3-0.3,1.3-0.9v-6.3c1.2-1.4,2-3.2,2-5.3c0-4.4-3.6-8-8-8s-8,3.6-8,8c0,2,0.8,3.9,2,5.3V21.6z M10,4 c3.3,0,6,2.7,6,6s-2.7,6-6,6s-6-2.7-6-6S6.7,4,10,4z"></path> <path class="st2" d="M17.8,22.3l0.9,0.3c0.6,0.2,1.3-0.3,1.3-0.9v-6.3c1.3-1.5,2-3.3,2-5.3c0-2.1-0.8-4.2-2.3-5.7 C18.2,2.8,16.1,2,14,2h-2c2.1,0,4.2,0.8,5.7,2.3C19.2,5.8,20,7.9,20,10c0,2-0.7,3.8-2,5.3v6.3C18,21.9,17.9,22.1,17.8,22.3z"></path> </g> </g> </svg> 