<?xml version="1.0" encoding="utf-8"?>
<!-- Generator: Adobe Illustrator 26.5.0, SVG Export Plug-In . SVG Version: 6.00 Build 0)  -->
<svg version="1.1" id="Layer_1" xmlns="http://www.w3.org/2000/svg" xmlns:xlink="http://www.w3.org/1999/xlink" x="0px" y="0px"
	 viewBox="0 0 17 14" style="enable-background:new 0 0 17 14;" xml:space="preserve">
<style type="text/css">
	.st0{fill:#1080FC;}
</style>
<g>
	<g>
		<path class="st0" d="M16.3,3.1v9.6c0,0.3-0.3,0.6-0.6,0.6H0.9c-0.3,0-0.6-0.3-0.6-0.6V3.1c0-0.3,0.3-0.6,0.6-0.6h14.8
			C16,2.5,16.3,2.8,16.3,3.1z"/>
		<path class="st0" d="M11.5,3.6c-0.3,0-0.5-0.2-0.5-0.5V1H5.6v2.1c0,0.3-0.2,0.5-0.5,0.5c-0.3,0-0.5-0.2-0.5-0.5V0.6
			C4.6,0.3,4.9,0,5.3,0h5.9C11.7,0,12,0.3,12,0.6v2.5C12,3.4,11.8,3.6,11.5,3.6z"/>
	</g>
</g>
</svg>
