<?xml version="1.0" encoding="utf-8"?>
<!-- Generator: Adobe Illustrator 26.5.0, SVG Export Plug-In . SVG Version: 6.00 Build 0)  -->
<svg version="1.1" id="Layer_1" xmlns="http://www.w3.org/2000/svg" xmlns:xlink="http://www.w3.org/1999/xlink" x="0px" y="0px"
	 viewBox="0 0 17 17" style="enable-background:new 0 0 17 17;" xml:space="preserve">
<style type="text/css">
	.st0{fill:#1080FC;}
</style>
<g>
	<g>
		<path class="st0" d="M3.7,16L1,16.3l0.3-2.7L11.9,3.1l2.4,2.4L3.7,16z"/>
		<path class="st0" d="M16,1.6l-0.3-0.3c-0.4-0.4-0.9-0.6-1.4-0.6S13.3,1,13,1.3l-1.3,1.3c0,0-0.1,0.1-0.1,0.1L1,13.3
			c-0.1,0.1-0.1,0.2-0.1,0.3l-0.3,2.7c0,0.1,0,0.3,0.1,0.4c0.1,0.1,0.2,0.1,0.3,0.1c0,0,0,0,0.1,0l2.7-0.3c0.1,0,0.2-0.1,0.3-0.1
			L14.6,5.8c0,0,0.1,0,0.1-0.1L16,4.4C16.8,3.6,16.8,2.4,16,1.6L16,1.6z M3.5,15.5l-1.9,0.2l0.2-1.9L11.9,3.8l1.7,1.7L3.5,15.5z
			 M15.3,3.7l-1,1L12.6,3l1-1c0.2-0.2,0.4-0.3,0.7-0.3S14.9,1.8,15,2l0.3,0.3C15.7,2.7,15.7,3.3,15.3,3.7L15.3,3.7z"/>
	</g>
</g>
</svg>
