<?xml version="1.0" encoding="utf-8"?>
<!-- Generator: Adobe Illustrator 26.5.0, SVG Export Plug-In . SVG Version: 6.00 Build 0)  -->
<svg version="1.1" id="Layer_1" xmlns="http://www.w3.org/2000/svg" xmlns:xlink="http://www.w3.org/1999/xlink" x="0px" y="0px"
	 viewBox="0 0 17 14" style="enable-background:new 0 0 17 14;" xml:space="preserve">
<style type="text/css">
	.st0{fill:#1080FC;}
</style>
<g>
	<g>
		<path class="st0" d="M11,12.2c0,0.2,0,0.4-0.2,0.6c-0.2,0.4-0.6,0.6-1,0.6c-2.8,0-5.6,0-8.4,0c-0.1,0-0.1,0-0.2,0
			c-0.5-0.1-0.9-0.4-1-1c0-0.2,0-0.3,0-0.5c0-0.4,0-0.9,0-1.3c0.1-1,0.6-1.8,1.3-2.4C2.3,7.6,3.1,7.3,4,7.3c1.1,0,2.3,0,3.4,0
			c0.6,0,1.2,0.2,1.8,0.5c0.1,0,0.1,0,0.1,0c0.4-0.3,0.9-0.4,1.4-0.4c1,0,2,0,2.9,0c1,0.1,1.8,0.6,2.3,1.5c0.2,0.4,0.3,0.9,0.3,1.4
			c0,0.3,0,0.6,0,0.9c0,0.6-0.4,1-1,1c-1.4,0-2.7,0-4.1,0H11L11,12.2z"/>
		<path class="st0" d="M2.3,3.5c0-1.8,1.4-3.4,3.4-3.4C7.4,0.1,9,1.5,9,3.5c0,1.9-1.5,3.3-3.3,3.4C3.8,6.9,2.3,5.4,2.3,3.5L2.3,3.5z
			 M5.7,5.9C7,5.9,8,4.8,8,3.5C8,2.2,7,1.1,5.6,1.1c-1.3,0-2.4,1.1-2.4,2.4C3.3,4.8,4.3,5.9,5.7,5.9z"/>
		<path class="st0" d="M9.5,4.4c0-1.5,1.2-2.7,2.7-2.6c1.3,0,2.5,1.1,2.5,2.7c0,1.5-1.2,2.6-2.7,2.6C10.5,7,9.5,5.7,9.5,4.4L9.5,4.4
			z M12.1,6c0.9,0,1.7-0.7,1.7-1.6c0-0.9-0.7-1.6-1.6-1.7c-0.9,0-1.6,0.7-1.7,1.6C10.5,5.3,11.3,6,12.1,6L12.1,6z"/>
	</g>
</g>
</svg>
