<?xml version="1.0" encoding="utf-8"?>
<!-- Generator: Adobe Illustrator 26.5.0, SVG Export Plug-In . SVG Version: 6.00 Build 0)  -->
<svg version="1.1" id="Layer_1" xmlns="http://www.w3.org/2000/svg" xmlns:xlink="http://www.w3.org/1999/xlink" x="0px" y="0px"
	 viewBox="0 0 17 17" style="enable-background:new 0 0 17 17;" xml:space="preserve">
<style type="text/css">
	.st0{fill:#1080FC;}
</style>
<g>
	<g>
		<path class="st0" d="M12,10.7c0,3.2-2.6,5.9-5.9,5.9c-3.2,0-5.9-2.6-5.9-5.9c0-2.6,1.7-4.8,4-5.6C4.1,5.6,4.1,6.1,4,6.6
			c-1.5,0.8-2.5,2.3-2.5,4.1c0,2.6,2.1,4.6,4.6,4.6c2.6,0,4.6-2.1,4.6-4.6c0-2.6-2-4.6-4.5-4.6c0.1-0.4,0.2-0.9,0.4-1.2
			C9.7,5.1,12,7.7,12,10.7z M10.4,0.9c-3.2,0-5.9,2.6-5.9,5.9c0,3.1,2.4,5.6,5.4,5.9c0.2-0.4,0.3-0.8,0.4-1.2
			c-2.5-0.1-4.5-2.1-4.5-4.6s2.1-4.6,4.6-4.6c2.6,0,4.6,2.1,4.6,4.6c0,1.8-1,3.3-2.5,4.1c0,0.5-0.1,1-0.2,1.4c2.3-0.8,4-3,4-5.6
			C16.3,3.6,13.6,0.9,10.4,0.9z"/>
	</g>
</g>
</svg>
