<?xml version="1.0" encoding="utf-8"?>
<!-- Generator: Adobe Illustrator 26.5.0, SVG Export Plug-In . SVG Version: 6.00 Build 0)  -->
<svg version="1.1" id="Layer_1" xmlns="http://www.w3.org/2000/svg" xmlns:xlink="http://www.w3.org/1999/xlink" x="0px" y="0px"
	 viewBox="0 0 13 17" style="enable-background:new 0 0 13 17;" xml:space="preserve">
<style type="text/css">
	.st0{fill:#1080FC;}
	.st1{fill:#FFFFFF;}
</style>
<g>
	<g>
		<path class="st0" d="M9.3,13.2H1.1V1.6h8.2V13.2z M9.6,0.8H0.8C0.5,0.8,0.3,1,0.3,1.3v12.2c0,0.3,0.2,0.5,0.5,0.5h9.3V1.3
			C10.1,1,9.9,0.8,9.6,0.8z"/>
		<path class="st0" d="M12.4,16.8H3.6c-0.3,0-0.5-0.2-0.5-0.5V4c0-0.3,0.2-0.5,0.5-0.5h8.8c0.3,0,0.5,0.2,0.5,0.5v12.2
			C12.9,16.6,12.7,16.8,12.4,16.8z"/>
		<path class="st1" d="M8.8,14.7H5.5c-0.2,0-0.4-0.2-0.4-0.4c0-0.2,0.2-0.4,0.4-0.4h3.3c0.2,0,0.4,0.2,0.4,0.4
			C9.2,14.5,9,14.7,8.8,14.7z"/>
		<path class="st1" d="M10.6,12H5.5c-0.2,0-0.4-0.2-0.4-0.4s0.2-0.4,0.4-0.4h5.1c0.2,0,0.4,0.2,0.4,0.4S10.8,12,10.6,12z"/>
		<path class="st1" d="M10.6,9.3H5.5c-0.2,0-0.4-0.2-0.4-0.4c0-0.2,0.2-0.4,0.4-0.4h5.1c0.2,0,0.4,0.2,0.4,0.4
			C11,9.1,10.8,9.3,10.6,9.3z"/>
		<path class="st1" d="M10.6,6.5H5.5c-0.2,0-0.4-0.2-0.4-0.4c0-0.2,0.2-0.4,0.4-0.4h5.1c0.2,0,0.4,0.2,0.4,0.4
			C11,6.3,10.8,6.5,10.6,6.5z"/>
	</g>
</g>
</svg>
