<?xml version="1.0" encoding="utf-8"?>
<!-- Generator: Adobe Illustrator 26.5.0, SVG Export Plug-In . SVG Version: 6.00 Build 0)  -->
<svg version="1.1" id="Layer_1" xmlns="http://www.w3.org/2000/svg" xmlns:xlink="http://www.w3.org/1999/xlink" x="0px" y="0px"
	 viewBox="0 0 17 16" style="enable-background:new 0 0 17 16;" xml:space="preserve">
<style type="text/css">
	.st0{fill:#1080FC;}
	.st1{fill:#FFFFFF;}
</style>
<g>
	<g>
		<path class="st0" d="M8.6,16c4.4,0,8-3.6,8-8c0-4.4-3.6-8-8-8c-4.4,0-8,3.6-8,8C0.6,12.4,4.2,16,8.6,16z"/>
		<path class="st1" d="M8.4,9.7C8,9.7,7.7,9.4,7.7,9L7.5,8C7.5,7.6,7.7,7.2,8.2,7.2C9.4,7,10,6.6,10,5.9v0c0-0.6-0.5-1-1.3-1
			C8.1,4.9,7.5,5.1,7,5.4C6.9,5.6,6.6,5.7,6.4,5.7c-0.5,0-1-0.5-1-1c0-0.3,0.1-0.6,0.4-0.8c0.8-0.6,1.7-1,3-1c2.1,0,3.5,1.1,3.5,3v0
			c0,1.8-1.3,2.6-2.8,2.9l0,0.3C9.3,9.4,9,9.7,8.6,9.7L8.4,9.7L8.4,9.7z M8.4,10.7c0.7,0,1.3,0.5,1.3,1.2v0c0,0.7-0.5,1.2-1.3,1.2
			c-0.7,0-1.3-0.5-1.3-1.2v0C7.2,11.2,7.7,10.7,8.4,10.7z"/>
	</g>
</g>
</svg>
